<svg width="186" height="216" viewBox="0 0 186 216" fill="none" xmlns="http://www.w3.org/2000/svg">
<g filter="url(#filter0_d_0_29)">
<path fill-rule="evenodd" clip-rule="evenodd" d="M178 156H8V204H178V156ZM88.9865 187.179C87.9169 187.179 86.9815 186.925 86.1804 186.418C85.3793 185.907 84.7571 185.195 84.3139 184.283C83.8707 183.367 83.6491 182.3 83.6491 181.081V180.148C83.6491 178.865 83.8729 177.742 84.3203 176.779C84.772 175.816 85.4027 175.068 86.2124 174.535C87.022 173.999 87.968 173.73 89.0504 173.73C90.022 173.73 90.8785 173.911 91.62 174.273C92.3658 174.631 92.9581 175.147 93.397 175.82C93.8402 176.494 94.0938 177.295 94.1577 178.224H91.799C91.7692 177.708 91.6285 177.263 91.3771 176.888C91.13 176.513 90.804 176.225 90.3991 176.025C89.9986 175.825 89.549 175.724 89.0504 175.724C88.441 175.724 87.9041 175.901 87.4396 176.255C86.9794 176.604 86.6193 177.097 86.3594 177.732C86.1389 178.275 86.0134 178.896 85.9831 179.592H90.4247V181.56H85.9812C86.0076 182.228 86.1315 182.822 86.353 183.344C86.6044 183.936 86.956 184.398 87.4077 184.731C87.8594 185.059 88.3857 185.223 88.9865 185.223C89.4893 185.223 89.9453 185.125 90.3544 184.929C90.7678 184.733 91.1023 184.452 91.358 184.085C91.6136 183.719 91.7564 183.282 91.7862 182.775H94.1577C94.1108 183.687 93.8658 184.473 93.4226 185.134C92.9794 185.79 92.3785 186.295 91.62 186.648C90.8615 187.002 89.9837 187.179 88.9865 187.179ZM59.3072 187L54.9989 181.279H53.8356V187H51.4641V173.909H53.8356V179.291H54.43L59.0834 173.909H62.0046L56.8334 179.879L62.2283 187H59.3072ZM63.709 187V185.031L64.0797 185.012C64.5826 184.982 64.981 184.801 65.275 184.469C65.5733 184.136 65.7928 183.602 65.9334 182.864C66.0783 182.127 66.1742 181.138 66.221 179.898L66.4384 173.909H75.0165V187H72.6962V175.859H68.65L68.4455 180.634C68.3858 182.065 68.2281 183.252 67.9725 184.194C67.721 185.136 67.3077 185.839 66.7324 186.303C66.1614 186.768 65.3666 187 64.3482 187H63.709ZM80.6935 187V173.909H78.3221V187H80.6935ZM97.059 173.909V187H99.4304V181.439H105.496V187H107.874V173.909H105.496V179.451H99.4304V173.909H97.059ZM110.598 175.897V173.909H121.043V175.897H116.997V187H114.644V175.897H110.598ZM126.129 173.909H123.776V187H125.879L132.054 178.083H132.163V187H134.534V173.909H132.406L126.25 182.832H126.129V173.909Z" fill="#FFCD50"/>
<rect x="9" y="5" width="168" height="152" stroke="#FFCD50" stroke-width="2"/>
<path d="M93 41.3448C78.8851 41.3448 67.3698 52.8256 67.3698 66.8981C67.3698 75.6957 71.8734 83.5077 78.6983 88.1182C65.6379 93.7034 56.3854 106.626 56.3854 121.655H63.7083C63.7083 105.483 76.7797 92.4513 93 92.4513C109.22 92.4513 122.292 105.483 122.292 121.655H129.615C129.615 106.626 120.362 93.7071 107.302 88.1146C110.785 85.7702 113.639 82.6104 115.614 78.9117C117.589 75.2131 118.624 71.0882 118.63 66.8981C118.63 52.8256 107.115 41.3448 93 41.3448ZM93 48.6458C103.153 48.6458 111.307 56.7754 111.307 66.8981C111.307 77.0208 103.153 85.1504 93 85.1504C82.8468 85.1504 74.6927 77.0208 74.6927 66.8981C74.6927 56.7754 82.8468 48.6458 93 48.6458Z" fill="#FFCD50"/>
<path d="M93 41.3448C78.8851 41.3448 67.3698 52.8256 67.3698 66.8981C67.3698 75.6957 71.8734 83.5077 78.6983 88.1182C65.6379 93.7034 56.3854 106.626 56.3854 121.655H63.7083C63.7083 105.483 76.7797 92.4513 93 92.4513C109.22 92.4513 122.292 105.483 122.292 121.655H129.615C129.615 106.626 120.362 93.7071 107.302 88.1146C110.785 85.7702 113.639 82.6104 115.614 78.9117C117.589 75.2131 118.624 71.0882 118.63 66.8981C118.63 52.8256 107.115 41.3448 93 41.3448ZM93 48.6458C103.153 48.6458 111.307 56.7754 111.307 66.8981C111.307 77.0208 103.153 85.1504 93 85.1504C82.8468 85.1504 74.6927 77.0208 74.6927 66.8981C74.6927 56.7754 82.8468 48.6458 93 48.6458Z" fill="#FFCD50"/>
</g>
<defs>
<filter id="filter0_d_0_29" x="0" y="0" width="186" height="216" filterUnits="userSpaceOnUse" color-interpolation-filters="sRGB">
<feFlood flood-opacity="0" result="BackgroundImageFix"/>
<feColorMatrix in="SourceAlpha" type="matrix" values="0 0 0 0 0 0 0 0 0 0 0 0 0 0 0 0 0 0 127 0" result="hardAlpha"/>
<feOffset dy="4"/>
<feGaussianBlur stdDeviation="4"/>
<feComposite in2="hardAlpha" operator="out"/>
<feColorMatrix type="matrix" values="0 0 0 0 0.0958333 0 0 0 0 0.0187674 0 0 0 0 0.031885 0 0 0 0.18 0"/>
<feBlend mode="normal" in2="BackgroundImageFix" result="effect1_dropShadow_0_29"/>
<feBlend mode="normal" in="SourceGraphic" in2="effect1_dropShadow_0_29" result="shape"/>
</filter>
</defs>
</svg>
