<svg width="31" height="31" viewBox="0 0 31 31" fill="none" xmlns="http://www.w3.org/2000/svg">
<path d="M15.5 29.9979C7.50552 29.9979 1.0022 23.4946 1.0022 15.5C1.0022 7.50552 7.50552 1.0022 15.5 1.0022C23.4946 1.0022 29.9979 7.50552 29.9979 15.5C29.9979 23.4946 23.4946 29.9979 15.5 29.9979ZM15.5 3.07332C8.64463 3.07332 3.07332 8.64463 3.07332 15.5C3.07332 22.3555 8.64463 27.9268 15.5 27.9268C22.3555 27.9268 27.9268 22.3555 27.9268 15.5C27.9268 8.64463 22.3555 3.07332 15.5 3.07332Z" fill="white"/>
<path d="M15.5 12.9111C16.3579 12.9111 17.0533 12.2157 17.0533 11.3578C17.0533 10.4999 16.3579 9.80444 15.5 9.80444C14.6421 9.80444 13.9467 10.4999 13.9467 11.3578C13.9467 12.2157 14.6421 12.9111 15.5 12.9111Z" fill="white"/>
<path d="M15.5 23.7845C14.9201 23.7845 14.4645 23.3288 14.4645 22.7489V16.5356C14.4645 15.9556 14.9201 15.5 15.5 15.5C16.08 15.5 16.5356 15.9556 16.5356 16.5356V22.7489C16.5356 23.3288 16.08 23.7845 15.5 23.7845Z" fill="white"/>
</svg>
