<svg width="186" height="216" viewBox="0 0 186 216" fill="none" xmlns="http://www.w3.org/2000/svg">
<g filter="url(#filter0_d_51_328)">
<path fill-rule="evenodd" clip-rule="evenodd" d="M178 156H8V204H178V156ZM98.0063 184.079C98.5347 183.073 98.7989 181.865 98.7989 180.455C98.7989 179.044 98.5347 177.838 98.0063 176.837C97.4821 175.831 96.7662 175.062 95.8586 174.529C94.9552 173.996 93.9303 173.73 92.784 173.73C91.6377 173.73 90.6107 173.996 89.703 174.529C88.7996 175.062 88.0837 175.831 87.5553 176.837C87.0312 177.838 86.7691 179.044 86.7691 180.455C86.7691 181.861 87.0312 183.067 87.5553 184.072C88.0837 185.074 88.7996 185.843 89.703 186.38C90.6107 186.913 91.6377 187.179 92.784 187.179C93.9303 187.179 94.9552 186.913 95.8586 186.38C96.7662 185.847 97.4821 185.08 98.0063 184.079ZM95.9481 177.942C96.2591 178.624 96.4147 179.462 96.4147 180.455C96.4147 181.447 96.2591 182.287 95.9481 182.973C95.6412 183.655 95.2151 184.173 94.6696 184.526C94.1242 184.876 93.4956 185.05 92.784 185.05C92.0723 185.05 91.4438 184.876 90.8983 184.526C90.3529 184.173 89.9246 183.655 89.6135 182.973C89.3067 182.287 89.1533 181.447 89.1533 180.455C89.1533 179.462 89.3067 178.624 89.6135 177.942C89.9246 177.256 90.3529 176.739 90.8983 176.389C91.4438 176.036 92.0723 175.859 92.784 175.859C93.4956 175.859 94.1242 176.036 94.6696 176.389C95.2151 176.739 95.6412 177.256 95.9481 177.942ZM37.0249 173.909V187H41.9212C42.9226 187 43.7813 186.827 44.4972 186.482C45.2174 186.137 45.7692 185.66 46.1527 185.05C46.5363 184.437 46.728 183.727 46.728 182.922C46.728 182.121 46.5363 181.424 46.1527 180.832C45.7692 180.239 45.2174 179.781 44.4972 179.457C43.7813 179.129 42.9226 178.965 41.9212 178.965H39.3964V175.897H45.4432V173.909H37.0249ZM41.9212 185.057H39.3964V180.896H41.9212C42.7138 180.896 43.3211 181.092 43.7429 181.484C44.1691 181.871 44.3821 182.342 44.3821 182.896C44.3821 183.28 44.2863 183.636 44.0945 183.964C43.907 184.292 43.63 184.556 43.2635 184.756C42.8971 184.957 42.4496 185.057 41.9212 185.057ZM51.8937 187V173.909H49.5222V187H51.8937ZM55.1817 187V173.909H63.6V175.897H57.5531V178.965H60.078C61.0794 178.965 61.9381 179.129 62.654 179.457C63.3742 179.781 63.926 180.239 64.3095 180.832C64.6931 181.424 64.8848 182.121 64.8848 182.922C64.8848 183.727 64.6931 184.437 64.3095 185.05C63.926 185.66 63.3742 186.137 62.654 186.482C61.9381 186.827 61.0794 187 60.078 187H55.1817ZM57.5531 185.057H60.078C60.6064 185.057 61.0539 184.957 61.4203 184.756C61.7868 184.556 62.0638 184.292 62.2513 183.964C62.4431 183.636 62.5389 183.28 62.5389 182.896C62.5389 182.342 62.3259 181.871 61.8997 181.484C61.4779 181.092 60.8706 180.896 60.078 180.896H57.5531V185.057ZM66.8289 185.031V187H67.4681C68.4866 187 69.2813 186.768 69.8523 186.303C70.4276 185.839 70.841 185.136 71.0924 184.194C71.3481 183.252 71.5057 182.065 71.5654 180.634L71.77 175.859H75.8161V187H78.1364V173.909H69.5583L69.341 179.898C69.2941 181.138 69.1982 182.127 69.0533 182.864C68.9127 183.602 68.6932 184.136 68.395 184.469C68.1009 184.801 67.7025 184.982 67.1996 185.012L66.8289 185.031ZM83.8135 173.909V187H81.442V173.909H83.8135ZM100.606 175.897V173.909H111.05V175.897H107.004V187H104.652V175.897H100.606ZM122.298 173.909H113.784V187H122.349V185.012H116.155V181.439H121.857V179.451H116.155V175.897H122.298V173.909ZM133.28 187L128.972 181.279H127.809V187H125.437V173.909H127.809V179.291H128.403L133.057 173.909H135.978L130.807 179.879L136.201 187H133.28ZM137.682 187H140.213L141.296 183.772H146.218L147.302 187H149.833L145.218 173.909H142.291L137.682 187ZM145.578 181.867L143.806 176.594H143.703L141.935 181.867H145.578Z" fill="white"/>
<rect x="9" y="5" width="168" height="152" stroke="white" stroke-width="2"/>
<g clip-path="url(#clip0_51_328)">
<path d="M71.6667 46.2346H119.667V50.4445H71.6667V46.2346Z" fill="white"/>
<path d="M122.333 53.8395H71.2933C70.6128 53.8297 69.9413 53.6796 69.3193 53.3982C68.6972 53.1169 68.1376 52.7102 67.6741 52.2026C67.2106 51.6949 66.8529 51.097 66.6224 50.4447C66.392 49.7925 66.2937 49.0994 66.3333 48.4074C66.33 47.0303 66.8404 45.7032 67.7612 44.6948C68.682 43.6863 69.9445 43.0717 71.2933 42.9753H122.333C123.041 42.9753 123.719 42.6892 124.219 42.1798C124.719 41.6704 125 40.9796 125 40.2593C125 39.5389 124.719 38.8481 124.219 38.3387C123.719 37.8294 123.041 37.5432 122.333 37.5432H71.2933C68.5296 37.6418 65.9114 38.8298 63.9911 40.8566C62.0707 42.8835 60.9983 45.5907 61 48.4074C60.9742 48.8506 60.9742 49.295 61 49.7383C60.9743 49.9548 60.9743 50.1736 61 50.3901V113.593C60.9983 116.409 62.0707 119.117 63.9911 121.143C65.9114 123.17 68.5296 124.358 71.2933 124.457H122.333C123.041 124.457 123.719 124.171 124.219 123.661C124.719 123.152 125 122.461 125 121.741V56.7457C125.002 56.0068 124.727 55.295 124.231 54.7551C123.736 54.2152 123.057 53.8878 122.333 53.8395ZM119.667 119.025H71.2933C69.9445 118.928 68.682 118.314 67.7612 117.305C66.8404 116.297 66.33 114.97 66.3333 113.593V58.0494C67.8496 58.9013 69.5624 59.3234 71.2933 59.2716H119.667V119.025Z" fill="white"/>
</g>
</g>
<defs>
<filter id="filter0_d_51_328" x="0" y="0" width="186" height="216" filterUnits="userSpaceOnUse" color-interpolation-filters="sRGB">
<feFlood flood-opacity="0" result="BackgroundImageFix"/>
<feColorMatrix in="SourceAlpha" type="matrix" values="0 0 0 0 0 0 0 0 0 0 0 0 0 0 0 0 0 0 127 0" result="hardAlpha"/>
<feOffset dy="4"/>
<feGaussianBlur stdDeviation="4"/>
<feComposite in2="hardAlpha" operator="out"/>
<feColorMatrix type="matrix" values="0 0 0 0 0.0958333 0 0 0 0 0.0187674 0 0 0 0 0.031885 0 0 0 0.18 0"/>
<feBlend mode="normal" in2="BackgroundImageFix" result="effect1_dropShadow_51_328"/>
<feBlend mode="normal" in="SourceGraphic" in2="effect1_dropShadow_51_328" result="shape"/>
</filter>
<clipPath id="clip0_51_328">
<rect width="64" height="88" fill="white" transform="translate(61 37)"/>
</clipPath>
</defs>
</svg>
