<svg width="186" height="216" viewBox="0 0 186 216" fill="none" xmlns="http://www.w3.org/2000/svg">
<g filter="url(#filter0_d_0_21)">
<path fill-rule="evenodd" clip-rule="evenodd" d="M178 156H8V204H178V156ZM84.7269 184.079C85.2553 183.073 85.5195 181.865 85.5195 180.455C85.5195 179.044 85.2553 177.838 84.7269 176.837C84.2027 175.831 83.4868 175.062 82.5792 174.529C81.6758 173.996 80.6509 173.73 79.5046 173.73C78.3583 173.73 77.3313 173.996 76.4236 174.529C75.5202 175.062 74.8043 175.831 74.2759 176.837C73.7517 177.838 73.4897 179.044 73.4897 180.455C73.4897 181.861 73.7517 183.067 74.2759 184.072C74.8043 185.074 75.5202 185.843 76.4236 186.38C77.3313 186.913 78.3583 187.179 79.5046 187.179C80.6509 187.179 81.6758 186.913 82.5792 186.38C83.4868 185.847 84.2027 185.08 84.7269 184.079ZM82.6687 177.942C82.9797 178.624 83.1353 179.462 83.1353 180.455C83.1353 181.447 82.9797 182.287 82.6687 182.973C82.3618 183.655 81.9357 184.173 81.3902 184.526C80.8448 184.876 80.2162 185.05 79.5046 185.05C78.7929 185.05 78.1644 184.876 77.6189 184.526C77.0735 184.173 76.6452 183.655 76.3341 182.973C76.0273 182.287 75.8739 181.447 75.8739 180.455C75.8739 179.462 76.0273 178.624 76.3341 177.942C76.6452 177.256 77.0735 176.739 77.6189 176.389C78.1644 176.036 78.7929 175.859 79.5046 175.859C80.2162 175.859 80.8448 176.036 81.3902 176.389C81.9357 176.739 82.3618 177.256 82.6687 177.942ZM57.9616 173.909V187H55.6093V175.878H49.8821V187H47.5298V173.909H57.9616ZM61.5181 187V173.909H66.4272C67.4328 173.909 68.2766 174.097 68.9584 174.472C69.6445 174.847 70.1623 175.362 70.5117 176.018C70.8654 176.67 71.0422 177.412 71.0422 178.243C71.0422 179.082 70.8654 179.828 70.5117 180.48C70.158 181.132 69.636 181.646 68.9456 182.021C68.2553 182.391 67.4051 182.577 66.3952 182.577H63.8895V187H61.5181ZM66.0756 180.627H63.8895V175.891H66.0628C66.6551 175.891 67.1388 175.991 67.5138 176.191C67.8931 176.387 68.1722 176.662 68.3512 177.016C68.5344 177.369 68.626 177.778 68.626 178.243C68.626 178.707 68.5344 179.119 68.3512 179.477C68.1722 179.835 67.8952 180.116 67.5202 180.32C67.1452 180.525 66.6637 180.627 66.0756 180.627ZM87.6314 190.158V185.063H88.5071C88.8011 184.829 89.076 184.499 89.3316 184.072C89.5873 183.646 89.8047 183.062 89.9836 182.321C90.1626 181.58 90.2862 180.621 90.3544 179.445L90.6996 173.909H99.0667V185.063H100.524V190.145H98.2486V187H89.9069V190.158H87.6314ZM91.2684 185.063H96.7912V175.897H92.8345L92.63 179.445C92.5746 180.335 92.4851 181.132 92.3615 181.835C92.2379 182.538 92.0824 183.158 91.8949 183.695C91.7074 184.228 91.4986 184.684 91.2684 185.063ZM102.326 187H104.857L105.94 183.772H110.861L111.946 187H114.477L109.862 173.909H106.935L102.326 187ZM110.221 181.867L108.45 176.594H108.347L106.579 181.867H110.221ZM126.152 173.909V179.438H127.66L130.703 173.909H133.598L129.738 180.116L133.841 187H131.035L127.999 181.637H126.152V187H123.825V181.637H122.01L118.916 187H116.135L120.29 180.122L116.372 173.909H119.28L122.374 179.438H123.825V173.909H126.152ZM136.362 187H138.734V173.909H136.362V187Z" fill="white"/>
<rect x="9" y="5" width="168" height="152" stroke="white" stroke-width="2"/>
<g clip-path="url(#clip0_0_21)">
<path d="M129.5 37V125.438H55.587V37H129.5ZM123.098 43.317H61.9891V119.121H123.098V43.317ZM74.7935 81.2189H68.3913V74.9019H74.7935V81.2189ZM116 81.2189H81.1957V74.9019H116V81.2189ZM74.7935 100.17H68.3913V93.8528H74.7935V100.17ZM116 100.17H81.1957V93.8528H116V100.17ZM74.7935 62.2679H68.3913V55.9509H74.7935V62.2679ZM116 62.2679H81.1957V55.9509H116V62.2679Z" fill="white"/>
<path d="M129.5 37V125.438H55.587V37H129.5ZM123.098 43.317H61.9891V119.121H123.098V43.317ZM74.7935 81.2189H68.3913V74.9019H74.7935V81.2189ZM116 81.2189H81.1957V74.9019H116V81.2189ZM74.7935 100.17H68.3913V93.8528H74.7935V100.17ZM116 100.17H81.1957V93.8528H116V100.17ZM74.7935 62.2679H68.3913V55.9509H74.7935V62.2679ZM116 62.2679H81.1957V55.9509H116V62.2679Z" fill="white"/>
</g>
</g>
<defs>
<filter id="filter0_d_0_21" x="0" y="0" width="186" height="216" filterUnits="userSpaceOnUse" color-interpolation-filters="sRGB">
<feFlood flood-opacity="0" result="BackgroundImageFix"/>
<feColorMatrix in="SourceAlpha" type="matrix" values="0 0 0 0 0 0 0 0 0 0 0 0 0 0 0 0 0 0 127 0" result="hardAlpha"/>
<feOffset dy="4"/>
<feGaussianBlur stdDeviation="4"/>
<feComposite in2="hardAlpha" operator="out"/>
<feColorMatrix type="matrix" values="0 0 0 0 0.0958333 0 0 0 0 0.0187674 0 0 0 0 0.031885 0 0 0 0.18 0"/>
<feBlend mode="normal" in2="BackgroundImageFix" result="effect1_dropShadow_0_21"/>
<feBlend mode="normal" in="SourceGraphic" in2="effect1_dropShadow_0_21" result="shape"/>
</filter>
<clipPath id="clip0_0_21">
<rect width="74" height="88" fill="white" transform="translate(56 37)"/>
</clipPath>
</defs>
</svg>
