<svg width="190" height="39" viewBox="0 0 190 39" fill="none" xmlns="http://www.w3.org/2000/svg">
<path d="M4.03226 27V6.63636H18.3504V11.0909H9.56067V13.4773H11.6289C13.3391 13.4773 14.8339 13.7524 16.1132 14.3026C17.3992 14.8527 18.3968 15.6283 19.1061 16.6293C19.822 17.6302 20.18 18.8068 20.18 20.1591C20.18 21.5114 19.822 22.7012 19.1061 23.7287C18.3968 24.7562 17.3992 25.5582 16.1132 26.1349C14.8339 26.7116 13.3391 27 11.6289 27H4.03226ZM9.56067 22.6648H11.6289C12.2917 22.6648 12.8486 22.5554 13.2993 22.3366C13.7567 22.1179 14.1014 21.8163 14.3334 21.4318C14.572 21.0473 14.6914 20.6098 14.6914 20.1193C14.6914 19.4233 14.4295 18.8466 13.9058 18.3892C13.3822 17.9252 12.6232 17.6932 11.6289 17.6932H9.56067V22.6648ZM28.7822 6.63636V27H23.2538V6.63636H28.7822ZM32.5223 27V6.63636H46.8404V11.0909H38.0507V13.4773H40.1189C41.8291 13.4773 43.3239 13.7524 44.6032 14.3026C45.8892 14.8527 46.8868 15.6283 47.5961 16.6293C48.312 17.6302 48.67 18.8068 48.67 20.1591C48.67 21.5114 48.312 22.7012 47.5961 23.7287C46.8868 24.7562 45.8892 25.5582 44.6032 26.1349C43.3239 26.7116 41.8291 27 40.1189 27H32.5223ZM38.0507 22.6648H40.1189C40.7817 22.6648 41.3386 22.5554 41.7893 22.3366C42.2467 22.1179 42.5914 21.8163 42.8234 21.4318C43.062 21.0473 43.1814 20.6098 43.1814 20.1193C43.1814 19.4233 42.9195 18.8466 42.3958 18.3892C41.8722 17.9252 41.1132 17.6932 40.1189 17.6932H38.0507V22.6648ZM51.0677 27V22.7443L51.6245 22.6648C52.3006 22.5587 52.8608 22.267 53.3049 21.7898C53.7557 21.3059 54.1004 20.5402 54.339 19.4929C54.5843 18.4389 54.74 17.0038 54.8063 15.1875L55.1245 6.63636H69.8802V27H64.5506V10.9318H60.2154L59.8972 17.3352C59.7779 19.7083 59.4597 21.6009 58.9427 23.0128C58.4256 24.4247 57.6401 25.4422 56.5862 26.0653C55.5322 26.6884 54.1434 27 52.42 27H51.0677ZM79.1461 6.63636V27H73.6177V6.63636H79.1461ZM102.613 16.8182C102.613 19.0852 102.173 20.9976 101.291 22.5554C100.409 24.1065 99.2195 25.2831 97.7214 26.0852C96.2233 26.8807 94.5528 27.2784 92.71 27.2784C90.854 27.2784 89.1769 26.8774 87.6788 26.0753C86.1873 25.2666 85.0008 24.0866 84.1191 22.5355C83.2441 20.9777 82.8066 19.072 82.8066 16.8182C82.8066 14.5511 83.2441 12.642 84.1191 11.0909C85.0008 9.53314 86.1873 8.35653 87.6788 7.56108C89.1769 6.759 90.854 6.35795 92.71 6.35795C94.5528 6.35795 96.2233 6.759 97.7214 7.56108C99.2195 8.35653 100.409 9.53314 101.291 11.0909C102.173 12.642 102.613 14.5511 102.613 16.8182ZM96.9259 16.8182C96.9259 15.5985 96.7635 14.571 96.4387 13.7358C96.1205 12.8939 95.6466 12.2576 95.0169 11.8267C94.3937 11.3892 93.6248 11.1705 92.71 11.1705C91.7953 11.1705 91.023 11.3892 90.3933 11.8267C89.7702 12.2576 89.2962 12.8939 88.9714 13.7358C88.6532 14.571 88.4941 15.5985 88.4941 16.8182C88.4941 18.0379 88.6532 19.0687 88.9714 19.9105C89.2962 20.7457 89.7702 21.3821 90.3933 21.8196C91.023 22.2505 91.7953 22.4659 92.71 22.4659C93.6248 22.4659 94.3937 22.2505 95.0169 21.8196C95.6466 21.3821 96.1205 20.7457 96.4387 19.9105C96.7635 19.0687 96.9259 18.0379 96.9259 16.8182ZM104.777 11.0909V6.63636H122.476V11.0909H116.351V27H110.902V11.0909H104.777ZM125.677 27V6.63636H140.353V11.0909H131.205V14.5909H139.597V19.0455H131.205V22.5455H140.313V27H125.677ZM156.763 27L150.519 18.767H149.743V27H144.215V6.63636H149.743V14.3125H150.459L156.306 6.63636H163.266L155.51 16.4205L163.704 27H156.763ZM171.597 27H165.631L172.353 6.63636H179.91L186.631 27H180.666L176.211 12.2443H176.052L171.597 27ZM170.484 18.9659H181.7V23.1023H170.484V18.9659Z" fill="#FFCD50"/>
<rect y="38" width="190" height="1" fill="#FFCD50"/>
</svg>
