<svg width="190" height="39" viewBox="0 0 190 39" fill="none" xmlns="http://www.w3.org/2000/svg">
<path d="M40.2723 27L34.028 18.767H33.2524V27H27.724V6.63636H33.2524V14.3125H33.9683L39.8149 6.63636H46.7751L39.0194 16.4205L47.2126 27H40.2723ZM49.1405 27V22.7443L49.6973 22.6648C50.3735 22.5587 50.9336 22.267 51.3777 21.7898C51.8285 21.3059 52.1732 20.5402 52.4118 19.4929C52.6571 18.4389 52.8129 17.0038 52.8791 15.1875L53.1973 6.63636H67.953V27H62.6235V10.9318H58.2882L57.9701 17.3352C57.8507 19.7083 57.5326 21.6009 57.0155 23.0128C56.4985 24.4247 55.7129 25.4422 54.659 26.0653C53.605 26.6884 52.2163 27 50.4928 27H49.1405ZM77.219 6.63636V27H71.6906V6.63636H77.219ZM89.8681 27.2784C88.0054 27.2784 86.4012 26.884 85.0556 26.0952C83.7099 25.3063 82.6758 24.1795 81.9533 22.7145C81.2374 21.2429 80.8794 19.4896 80.8794 17.4545V16.6989C80.8794 14.5578 81.2308 12.715 81.9334 11.1705C82.6427 9.62595 83.6569 8.43939 84.976 7.61079C86.3018 6.77557 87.8794 6.35795 89.709 6.35795C91.4192 6.35795 92.914 6.65625 94.1934 7.25284C95.4727 7.8428 96.4902 8.69129 97.2459 9.79829C98.0082 10.9053 98.4524 12.2244 98.5783 13.7557H93.2885C93.2753 13.1127 93.1195 12.5592 92.8212 12.0952C92.5295 11.6312 92.1185 11.2765 91.5882 11.0312C91.0646 10.7794 90.4382 10.6534 89.709 10.6534C88.9864 10.6534 88.3633 10.8622 87.8397 11.2798C87.316 11.6974 86.9116 12.2973 86.6266 13.0795C86.3482 13.8551 86.209 14.7831 86.209 15.8636V18.25C86.209 19.2443 86.3548 20.1027 86.6465 20.8253C86.9448 21.5412 87.3657 22.0947 87.9093 22.4858C88.4595 22.8703 89.1124 23.0625 89.8681 23.0625C90.5575 23.0625 91.1507 22.9465 91.6479 22.7145C92.1517 22.4759 92.5395 22.1378 92.8113 21.7003C93.0897 21.2562 93.2355 20.7292 93.2488 20.1193H98.5783C98.5186 21.5975 98.1275 22.8736 97.405 23.9474C96.6891 25.0147 95.6882 25.8366 94.4022 26.4134C93.1228 26.9901 91.6114 27.2784 89.8681 27.2784ZM82.9874 19.2045V14.9489H91.4192V19.2045H82.9874ZM102.204 27V6.63636H107.732V14.5909H115.051V6.63636H120.579V27H115.051V19.0455H107.732V27H102.204ZM123.767 11.0909V6.63636H141.466V11.0909H135.341V27H129.892V11.0909H123.767ZM144.667 6.63636H150.195V17.2955H150.354L157.593 6.63636H162.286V27H156.758V16.3011H156.638L149.28 27H144.667V6.63636Z" fill="#FFCD50"/>
<rect y="38" width="190" height="1" fill="#FFCD50"/>
</svg>
