<svg width="190" height="39" viewBox="0 0 190 39" fill="none" xmlns="http://www.w3.org/2000/svg">
<path d="M37.1476 6.63636V27H31.6988V11.0114H24.8181V27H19.3692V6.63636H37.1476ZM41.8049 27V6.63636H50.5947C52.1061 6.63636 53.4285 6.93466 54.562 7.53125C55.6955 8.12784 56.5772 8.96638 57.2069 10.0469C57.8366 11.1274 58.1515 12.3902 58.1515 13.8352C58.1515 15.2936 57.8267 16.5563 57.1771 17.6236C56.5341 18.6908 55.6293 19.5128 54.4626 20.0895C53.3026 20.6662 51.947 20.9545 50.3958 20.9545H45.1458V16.6591H49.2822C49.9318 16.6591 50.4853 16.5464 50.9427 16.321C51.4067 16.089 51.7614 15.7609 52.0066 15.3366C52.2585 14.9124 52.3845 14.4119 52.3845 13.8352C52.3845 13.2519 52.2585 12.7547 52.0066 12.3438C51.7614 11.9261 51.4067 11.608 50.9427 11.3892C50.4853 11.1638 49.9318 11.0511 49.2822 11.0511H47.3333V27H41.8049ZM81.0272 16.8182C81.0272 19.0852 80.5864 20.9976 79.7048 22.5554C78.8231 24.1065 77.6333 25.2831 76.1352 26.0852C74.637 26.8807 72.9666 27.2784 71.1238 27.2784C69.2677 27.2784 67.5906 26.8774 66.0925 26.0753C64.6011 25.2666 63.4145 24.0866 62.5329 22.5355C61.6579 20.9777 61.2204 19.072 61.2204 16.8182C61.2204 14.5511 61.6579 12.642 62.5329 11.0909C63.4145 9.53314 64.6011 8.35653 66.0925 7.56108C67.5906 6.759 69.2677 6.35795 71.1238 6.35795C72.9666 6.35795 74.637 6.759 76.1352 7.56108C77.6333 8.35653 78.8231 9.53314 79.7048 11.0909C80.5864 12.642 81.0272 14.5511 81.0272 16.8182ZM75.3397 16.8182C75.3397 15.5985 75.1773 14.571 74.8525 13.7358C74.5343 12.8939 74.0603 12.2576 73.4306 11.8267C72.8075 11.3892 72.0386 11.1705 71.1238 11.1705C70.209 11.1705 69.4368 11.3892 68.807 11.8267C68.1839 12.2576 67.71 12.8939 67.3852 13.7358C67.067 14.571 66.9079 15.5985 66.9079 16.8182C66.9079 18.0379 67.067 19.0687 67.3852 19.9105C67.71 20.7457 68.1839 21.3821 68.807 21.8196C69.4368 22.2505 70.209 22.4659 71.1238 22.4659C72.0386 22.4659 72.8075 22.2505 73.4306 21.8196C74.0603 21.3821 74.5343 20.7457 74.8525 19.9105C75.1773 19.0687 75.3397 18.0379 75.3397 16.8182ZM84.0289 31.892V22.7443H85.4608C85.938 22.4527 86.3689 22.0417 86.7534 21.5114C87.1445 20.9811 87.4759 20.2221 87.7477 19.2344C88.0261 18.2467 88.2316 16.9242 88.3642 15.267L89.0403 6.63636H103.438V22.7443H105.586V31.892H100.256V27H89.3585V31.892H84.0289ZM91.7846 22.7443H98.1085V11.0909H94.0119L93.6937 15.267C93.6009 16.5133 93.4584 17.6037 93.2662 18.5384C93.0806 19.4664 92.8585 20.2751 92.6 20.9645C92.3481 21.6473 92.0763 22.2405 91.7846 22.7443ZM113.865 27H107.899L114.621 6.63636H122.177L128.899 27H122.933L118.478 12.2443H118.319L113.865 27ZM112.751 18.9659H123.967V23.1023H112.751V18.9659ZM149.798 6.63636V27H144.469V6.63636H149.798ZM131.503 27L137.747 16.1818L131.582 6.63636H138.423L142.52 14.5909H151.906L155.804 6.63636H162.605L156.719 16.1023L162.764 27H156.082L152.582 19.6818H141.804L138.145 27H131.503ZM171.551 6.63636V27H166.022V6.63636H171.551Z" fill="#FFCD50"/>
<rect y="38" width="190" height="1" fill="#FFCD50"/>
</svg>
