<svg width="27" height="22" viewBox="0 0 27 22" fill="none" xmlns="http://www.w3.org/2000/svg">
<path fill-rule="evenodd" clip-rule="evenodd" d="M15.8824 1.57143C15.8824 0.703552 16.5934 0 17.4706 0H19.0588C21.165 0 23.1848 0.827804 24.6741 2.3013C26.1633 3.7748 27 5.7733 27 7.85714C27 9.94099 26.1633 11.9395 24.6741 13.413C23.1848 14.8865 21.165 15.7143 19.0588 15.7143H5.42257L9.06423 19.3174C9.68447 19.9311 9.68447 20.9261 9.06423 21.5397C8.44398 22.1534 7.43837 22.1534 6.81812 21.5397L0.465183 15.254C-0.155061 14.6403 -0.155061 13.6454 0.465183 13.0317L6.81812 6.74598C7.43837 6.13229 8.44398 6.13229 9.06423 6.74598C9.68447 7.35966 9.68447 8.35463 9.06423 8.96831L5.42257 12.5714H19.0588C20.3225 12.5714 21.5344 12.0747 22.428 11.1906C23.3215 10.3065 23.8235 9.10745 23.8235 7.85714C23.8235 6.60684 23.3215 5.40774 22.428 4.52364C21.5344 3.63954 20.3225 3.14286 19.0588 3.14286H17.4706C16.5934 3.14286 15.8824 2.4393 15.8824 1.57143Z" fill="#E04153"/>
</svg>
