<svg width="30" height="30" viewBox="0 0 30 30" fill="none" xmlns="http://www.w3.org/2000/svg">
<g clip-path="url(#clip0_293_4)">
<path d="M0.227295 29.7728V3.18184C0.227295 2.36934 0.51684 1.67355 1.09593 1.09446C1.67502 0.515365 2.37033 0.226313 3.18184 0.227297H26.8182C27.6307 0.227297 28.3265 0.516843 28.9056 1.09593C29.4847 1.67502 29.7737 2.37033 29.7727 3.18184V20.9091C29.7727 21.7216 29.4832 22.4174 28.9041 22.9965C28.325 23.5756 27.6297 23.8646 26.8182 23.8637H6.13639L0.227295 29.7728ZM11.1591 17.9546L15 14.1137L18.8409 17.9546L20.9091 15.8864L17.0682 12.0455L20.9091 8.20457L18.8409 6.13639L15 9.9773L11.1591 6.13639L9.09093 8.20457L12.9318 12.0455L9.09093 15.8864L11.1591 17.9546Z" fill="#FFCD50"/>
</g>
<defs>
<clipPath id="clip0_293_4">
<rect width="30" height="30" fill="white"/>
</clipPath>
</defs>
</svg>
